Coordinates
version=1
nRows=54
nColumns=12
inDegrees=yes

Units are S.I. units (second, meters, Newtons, ...)
Angles are in degrees

endheader
time	SC_y	SC_z	SC_x	AC_y	AC_z	AC_x	GH_y	GH_z	GH_yy	EL_x	PS_y
       0.0              -25.68          35.24           1.33          33.52         -2.033          -1.44         -21.38          32.32          92.17          112.5          117.6
  0.005339              -25.69          35.23          1.341          33.52         -2.034         -1.442         -21.36          32.33          92.15          112.5          117.5
   0.01068              -25.69          35.23          1.352          33.53         -2.034         -1.443         -21.35          32.33          92.13          112.5          117.5
   0.01602              -25.69          35.23          1.364          33.53         -2.035         -1.445         -21.33          32.34          92.11          112.5          117.5
   0.02136              -25.69          35.23          1.376          33.54         -2.035         -1.447         -21.31          32.35          92.08          112.5          117.5
   0.02669               -25.7          35.22           1.39          33.54         -2.036         -1.449          -21.3          32.36          92.05          112.5          117.5
   0.03203               -25.7          35.22          1.404          33.55         -2.036         -1.451         -21.28          32.37          92.03          112.5          117.5
   0.03737               -25.7          35.22           1.42          33.56         -2.037         -1.453         -21.26          32.38           92.0          112.5          117.5
   0.04271              -25.71          35.21          1.436          33.56         -2.038         -1.456         -21.23          32.39          91.97          112.5          117.5
   0.04805              -25.71          35.21          1.454          33.57         -2.038         -1.459         -21.21           32.4          91.93          112.5          117.4
   0.05339              -25.72           35.2          1.473          33.58         -2.039         -1.461         -21.18          32.42          91.89          112.5          117.4
   0.05873              -25.72           35.2          1.494          33.59          -2.04         -1.464         -21.16          32.43          91.86          112.5          117.4
   0.06407              -25.72          35.19          1.516          33.59         -2.041         -1.468         -21.13          32.45          91.81          112.4          117.4
    0.0694              -25.73          35.19           1.54           33.6         -2.042         -1.471         -21.09          32.46          91.77          112.4          117.4
   0.07474              -25.74          35.18          1.566          33.61         -2.043         -1.475         -21.06          32.48          91.72          112.4          117.3
   0.08008              -25.74          35.18          1.594          33.63         -2.044         -1.479         -21.02           32.5          91.66          112.4          117.3
   0.08542              -25.75          35.17          1.624          33.64         -2.045         -1.484         -20.98          32.52           91.6          112.4          117.3
   0.09076              -25.76          35.16          1.658          33.65         -2.047         -1.488         -20.93          32.54          91.54          112.4          117.3
    0.0961              -25.76          35.15          1.694          33.67         -2.048         -1.494         -20.89          32.57          91.47          112.4          117.2
    0.1014              -25.77          35.14          1.734          33.68          -2.05           -1.5         -20.83           32.6          91.39          112.4          117.2
    0.1068              -25.78          35.13          1.777           33.7         -2.052         -1.506         -20.77          32.63          91.31          112.3          117.1
    0.1121              -25.79          35.12          1.825          33.72         -2.054         -1.513         -20.71          32.66          91.22          112.3          117.1
    0.1175               -25.8          35.11          1.878          33.74         -2.056         -1.521         -20.64           32.7          91.12          112.3          117.1
    0.1228              -25.82           35.1          1.937          33.76         -2.058          -1.53         -20.56          32.74           91.0          112.3          117.0
    0.1281              -25.83          35.08          2.002          33.79         -2.061         -1.539         -20.47          32.78          90.88          112.3          116.9
    0.1335              -25.85          35.06          2.075          33.82         -2.064          -1.55         -20.37          32.83          90.74          112.2          116.9
    0.1388              -25.87          35.04          2.157          33.85         -2.067         -1.562         -20.26          32.89          90.58          112.2          116.8
    0.1441              -25.89          35.02          2.249          33.89         -2.071         -1.576         -20.13          32.95           90.4          112.2          116.7
    0.1495              -25.91           35.0          2.352          33.93         -2.075         -1.591         -19.99          33.02           90.2          112.1          116.6
    0.1548              -25.93          34.97           2.47          33.98          -2.08         -1.608         -19.83           33.1          89.98          112.1          116.5
    0.1602              -25.96          34.94          2.605          34.03         -2.085         -1.628         -19.65           33.2          89.72          112.0          116.4
    0.1655               -26.0           34.9          2.759          34.09         -2.092         -1.651         -19.44           33.3          89.42          112.0          116.2
    0.1708              -26.04          34.86          2.937          34.16         -2.099         -1.677          -19.2          33.43          89.08          111.9          116.1
    0.1762              -26.08          34.81          3.144          34.24         -2.107         -1.707         -18.92          33.57          88.68          111.8          115.9
    0.1815              -26.14          34.76          3.386          34.34         -2.117         -1.743         -18.59          33.74          88.22          111.7          115.7
    0.1869               -26.2          34.69          3.672          34.46         -2.129         -1.785         -18.21          33.93          87.67          111.6          115.4
    0.1922              -26.27          34.61          4.011          34.59         -2.143         -1.835         -17.75          34.17          87.01          111.5          115.1
    0.1975              -26.36          34.52          4.418          34.75         -2.159         -1.895          -17.2          34.45          86.23          111.3          114.7
    0.2029              -26.47           34.4           4.91          34.95         -2.179         -1.968         -16.53          34.79          85.28          111.2          114.3
    0.2082               -26.6          34.26          5.511          35.19         -2.204         -2.056         -15.72           35.2          84.13          110.9          113.7
    0.2136              -26.77          34.09          6.253          35.49         -2.234         -2.165         -14.71          35.71           82.7          110.6          113.0
    0.2189              -26.97          33.88          7.179          35.86         -2.272         -2.302         -13.46          36.35          80.92          110.3          112.2
    0.2242              -27.23           33.6          8.344          36.32         -2.319         -2.473         -11.88          37.15          78.68          109.8          111.1
    0.2296              -27.55          33.26          9.826          36.91          -2.38         -2.692         -9.878          38.18          75.83          109.3          109.8
    0.2349              -27.97          32.82          11.72          37.67         -2.457         -2.971         -7.311          39.48          72.18          108.6          108.0
    0.2402              -28.51          32.25          14.16          38.64         -2.556          -3.33         -4.016          41.16           67.5          107.6          105.8
    0.2456              -29.19          31.53          17.27          39.88         -2.683         -3.787         0.1915          43.31          61.53          106.4          102.9
    0.2509              -30.05          30.62          21.17          41.45         -2.842         -4.363          5.482           46.0          54.01          104.9          99.34
    0.2563               -31.1          29.51          25.94          43.35         -3.036         -5.065          11.93          49.29          44.85          103.1          94.97
    0.2616              -32.31          28.22          31.46          45.55         -3.261         -5.878           19.4          53.09          34.23          101.0           89.9
    0.2669              -33.63          26.83          37.44          47.94         -3.504         -6.759           27.5          57.22          22.73          98.74          84.41
    0.2723              -34.94          25.43          43.42          50.33         -3.748          -7.64          35.59          61.34          11.23          96.46          78.92
    0.2776              -36.16          24.15          48.94          52.53         -3.973         -8.453          43.06          65.15         0.6153          94.36          73.85
     0.283              -37.21          23.04           53.7          54.44         -4.167         -9.155          49.51          68.43         -8.545          92.54          69.48
